<?xml version="1.0" encoding="utf-8"?>
<!-- Generator: Adobe Illustrator 22.1.0, SVG Export Plug-In . SVG Version: 6.00 Build 0)  -->
<svg version="1.1" id="Layer_1" xmlns="http://www.w3.org/2000/svg" xmlns:xlink="http://www.w3.org/1999/xlink" x="0px" y="0px"
	 viewBox="0 0 243 80.2" style="enable-background:new 0 0 243 80.2;" xml:space="preserve">
<style type="text/css">
	.st0{fill:#FFFFFF;}
</style>
<polygon points="217.3,58.7 4.4,58.7 28,0 241,0 "/>
<g>
	<path d="M4.1,78.8c-1.1-0.9-1.7-2.1-1.7-3.7c0-0.5,0.1-1,0.2-1.6c0.5-2.2,1.4-3.9,2.8-5c1.4-1.1,3.4-1.7,6-1.7
		c1.4,0,2.7,0.2,3.8,0.7l-0.8,3.7c-0.5-0.3-1.1-0.5-1.6-0.6c-0.5-0.1-1.2-0.2-1.9-0.2c-1.1,0-2,0.2-2.6,0.7
		c-0.6,0.5-1.1,1.2-1.3,2.3c-0.1,0.5-0.1,0.9-0.1,1.1c0,0.7,0.2,1.1,0.7,1.4c0.4,0.3,1.2,0.4,2.2,0.4c1.3,0,2.6-0.3,3.8-0.8
		l-0.8,3.7c-1.3,0.4-2.7,0.7-4.1,0.7C6.7,80.1,5.2,79.6,4.1,78.8z"/>
	<path d="M18.8,78.9c-1-0.8-1.5-1.9-1.5-3.5c0-0.6,0.1-1.3,0.2-1.9c0.3-1.6,0.9-2.9,1.5-3.8c0.7-1,1.6-1.7,2.6-2.1
		c1.1-0.4,2.4-0.7,3.9-0.7c1.7,0,3.1,0.4,4.1,1.2c1,0.8,1.5,1.9,1.5,3.5c0,0.6-0.1,1.3-0.2,1.9c-0.3,1.6-0.9,2.8-1.5,3.8
		c-0.7,1-1.5,1.7-2.6,2.1c-1.1,0.4-2.4,0.7-4,0.7C21.2,80.1,19.8,79.7,18.8,78.9z M25.6,75.8c0.5-0.5,0.8-1.2,1-2.3
		c0.1-0.6,0.2-1,0.2-1.4c0-0.6-0.1-1-0.4-1.2c-0.3-0.2-0.8-0.4-1.4-0.4c-0.8,0-1.5,0.2-2,0.7c-0.5,0.5-0.8,1.2-1,2.3
		c-0.1,0.5-0.2,1-0.2,1.4c0,0.6,0.1,1,0.4,1.2c0.3,0.3,0.8,0.4,1.4,0.4C24.5,76.5,25.1,76.2,25.6,75.8z"/>
	<path d="M36.3,67.1h3.6l3,5.9l1.3-5.9h4.3l-2.7,12.8h-3.6L39.1,74l-1.2,5.9h-4.3L36.3,67.1z"/>
	<path d="M54.8,70.2h-3.4l0.7-3.1h11.1l-0.7,3.1H59l-2,9.7h-4.3L54.8,70.2z"/>
	<path d="M66.7,67.1h6.9c1.2,0,2.1,0.3,2.8,1c0.7,0.6,1,1.5,1,2.6c0,0.4,0,0.7-0.1,1.1c-0.2,0.9-0.5,1.6-1.1,2.3
		c-0.5,0.7-1.2,1.2-2,1.6c0.2,0.2,0.4,0.5,0.5,0.9l0.8,3.4H71l-0.7-3c0-0.2-0.1-0.3-0.2-0.4c-0.1-0.1-0.3-0.1-0.5-0.1H69l-0.7,3.5
		H64L66.7,67.1z M71.3,73.1c0.5,0,0.9-0.1,1.2-0.3c0.3-0.2,0.4-0.6,0.5-1c0-0.2,0.1-0.4,0.1-0.5c0-0.3-0.1-0.5-0.2-0.6
		c-0.2-0.1-0.4-0.2-0.8-0.2h-1.7l-0.6,2.7H71.3z"/>
	<path d="M85.9,67.1h4.5l2.2,12.8h-4.3l-0.5-2.5h-3.5l-1.5,2.5h-4.6L85.9,67.1z M88,74.3l-0.6-3.1l-1.8,3.1H88z"/>
	<path d="M98,78.8c-1.1-0.9-1.7-2.1-1.7-3.7c0-0.5,0.1-1,0.2-1.6c0.5-2.2,1.4-3.9,2.8-5c1.4-1.1,3.4-1.7,6-1.7
		c1.4,0,2.7,0.2,3.8,0.7l-0.8,3.7c-0.5-0.3-1.1-0.5-1.6-0.6c-0.5-0.1-1.2-0.2-1.9-0.2c-1.1,0-2,0.2-2.6,0.7
		c-0.6,0.5-1.1,1.2-1.3,2.3c-0.1,0.5-0.1,0.9-0.1,1.1c0,0.7,0.2,1.1,0.7,1.4c0.4,0.3,1.2,0.4,2.2,0.4c1.3,0,2.6-0.3,3.8-0.8
		l-0.8,3.7c-1.3,0.4-2.7,0.7-4.1,0.7C100.6,80.1,99.1,79.6,98,78.8z"/>
	<path d="M115.2,70.2h-3.4l0.7-3.1h11.1l-0.7,3.1h-3.4l-2,9.7h-4.3L115.2,70.2z"/>
	<path d="M127.1,67.1h4.3l-2.7,12.8h-4.3L127.1,67.1z"/>
	<path d="M135.8,67.1h3.6l3,5.9l1.3-5.9h4.3l-2.7,12.8h-3.6l-2.9-5.9l-1.2,5.9h-4.3L135.8,67.1z"/>
	<path d="M151.9,78.8c-1.1-0.8-1.6-2.1-1.6-3.6c0-0.5,0.1-1.1,0.2-1.7c0.5-2.2,1.4-3.8,3-5c1.5-1.1,3.5-1.7,6-1.7
		c1.5,0,2.8,0.2,3.9,0.6l-0.8,3.6c-0.9-0.4-2.1-0.6-3.6-0.6c-1.2,0-2.1,0.2-2.8,0.7c-0.7,0.5-1.1,1.3-1.4,2.3
		c-0.1,0.5-0.2,1-0.2,1.3c0,0.6,0.2,1,0.5,1.3c0.4,0.2,1,0.4,1.8,0.4c0.6,0,1.1-0.1,1.6-0.2l0.3-1.3h-2.3l0.6-2.6h5.9l-1.4,6.5
		c-0.6,0.4-1.4,0.7-2.3,0.9c-0.9,0.2-1.9,0.3-3,0.3C154.4,80.1,153,79.7,151.9,78.8z"/>
	<path d="M177.2,67.1h4.3l-2.7,12.8h-4.3L177.2,67.1z"/>
	<path d="M185.9,67.1h3.6l3,5.9l1.3-5.9h4.3l-2.7,12.8h-3.6l-2.9-5.9l-1.2,5.9h-4.3L185.9,67.1z"/>
	<path d="M202.1,78.8c-1.1-0.9-1.7-2.1-1.7-3.7c0-0.5,0.1-1,0.2-1.6c0.5-2.2,1.4-3.9,2.8-5c1.4-1.1,3.4-1.7,6-1.7
		c1.4,0,2.7,0.2,3.8,0.7l-0.8,3.7c-0.5-0.3-1.1-0.5-1.6-0.6c-0.5-0.1-1.2-0.2-1.9-0.2c-1.1,0-2,0.2-2.6,0.7
		c-0.6,0.5-1.1,1.2-1.3,2.3c-0.1,0.5-0.1,0.9-0.1,1.1c0,0.7,0.2,1.1,0.7,1.4c0.4,0.3,1.2,0.4,2.2,0.4c1.3,0,2.6-0.3,3.8-0.8
		l-0.8,3.7c-1.3,0.4-2.7,0.7-4.1,0.7C204.7,80.1,203.2,79.6,202.1,78.8z"/>
</g>
<g>
	<path class="st0" d="M33.1,39.4l15.5-15.5h-11l2-9.4h26.1L64.3,21L49,36.3h12.4L59.6,45H32L33.1,39.4z"/>
	<path class="st0" d="M83,14.5h11.9l5.3,30.5H88.8l-1-5.7h-7.4L77.1,45H64.8L83,14.5z M87.9,31.5l-1.1-5.8l-3.5,5.8H87.9z"/>
	<path class="st0" d="M111.6,14.5h17.1c2.9,0,5.2,0.8,6.9,2.4c1.7,1.6,2.5,3.7,2.5,6.3c0,0.9-0.1,1.7-0.3,2.6
		c-0.8,3.9-3.3,7-7.3,9.2c0.3,0.3,0.5,0.5,0.6,0.7c0.1,0.2,0.2,0.5,0.3,0.9l1.8,8.3h-11.9l-1.6-6.8c-0.1-0.3-0.2-0.6-0.4-0.8
		c-0.2-0.2-0.4-0.2-0.8-0.2h-0.5l-1.6,7.8h-11.4L111.6,14.5z M123,28.3c1.9,0,2.9-0.8,3.3-2.4c0.1-0.4,0.1-0.6,0.1-0.8
		c0-0.6-0.2-1-0.5-1.3c-0.3-0.3-0.9-0.4-1.7-0.4h-3l-1,4.8H123z"/>
	<path class="st0" d="M145.9,42.4c-2.7-2-4.1-4.9-4.1-8.8c0-1.2,0.1-2.5,0.4-3.9c1.1-5.1,3.5-9,7.2-11.7c3.8-2.7,8.5-4,14.2-4
		c1.9,0,3.5,0.1,4.9,0.4c1.4,0.3,2.9,0.7,4.3,1.3l-2.1,10c-1.4-0.7-2.7-1.2-4.1-1.5c-1.4-0.3-2.8-0.5-4.4-0.5
		c-2.5,0-4.4,0.4-5.7,1.3c-1.3,0.9-2.2,2.5-2.7,4.7c-0.2,0.6-0.2,1.3-0.2,2.1c0,1.5,0.5,2.5,1.5,3.1c1,0.6,2.6,0.9,4.8,0.9
		c1.5,0,3.1-0.2,4.5-0.5c1.5-0.3,3.1-0.8,4.7-1.5l-2.1,10c-1.7,0.6-3.3,1-4.8,1.3s-3.3,0.4-5.1,0.4
		C152.3,45.5,148.6,44.5,145.9,42.4z"/>
	<path class="st0" d="M178.4,42.9c-2.4-1.7-3.5-4.5-3.5-8.3c0-1.4,0.2-3,0.6-4.8c1.2-5.6,3.4-9.6,6.6-12.1c3.2-2.4,7.6-3.6,13.1-3.6
		c4.4,0,7.7,0.9,10,2.6c2.3,1.7,3.5,4.4,3.5,8.2c0,1.5-0.2,3.1-0.6,5c-1.2,5.6-3.4,9.6-6.6,12.1c-3.2,2.4-7.5,3.6-13.1,3.6
		C184.1,45.5,180.8,44.6,178.4,42.9z M194.4,34.4c0.9-0.9,1.6-2.5,2.1-4.7c0.3-1.4,0.4-2.4,0.4-3c0-1.1-0.3-1.9-0.9-2.3
		c-0.6-0.5-1.6-0.7-2.9-0.7c-1.7,0-3,0.4-3.9,1.3c-0.9,0.9-1.6,2.5-2.1,4.7c-0.3,1.3-0.4,2.3-0.4,3c0,1.1,0.3,1.9,0.9,2.3
		c0.6,0.5,1.5,0.7,2.9,0.7C192.2,35.8,193.5,35.3,194.4,34.4z"/>
</g>
</svg>
